<?xml version="1.0" encoding="utf-8"?>
<!-- Generator: Adobe Illustrator 25.2.3, SVG Export Plug-In . SVG Version: 6.00 Build 0)  -->
<svg version="1.1" id="Calque_1" xmlns="http://www.w3.org/2000/svg" xmlns:xlink="http://www.w3.org/1999/xlink" x="0px" y="0px"
	 viewBox="0 0 25 25" style="enable-background:new 0 0 25 25;" xml:space="preserve">
<style type="text/css">
	.st0{fill:#C8A969;}
</style>
<g>
	<path class="st0" d="M21.26,3.22h-3.01V0.98c0-0.37-0.3-0.66-0.66-0.66h-0.94c-0.37,0-0.66,0.3-0.66,0.66v2.24H9.04V0.98
		c0-0.37-0.3-0.66-0.66-0.66H7.44c-0.37,0-0.66,0.3-0.66,0.66v2.24H3.74c-0.79,0-1.43,0.65-1.43,1.46V23.2
		c0,0.8,0.64,1.46,1.43,1.46h17.51c0.79,0,1.43-0.65,1.43-1.46V4.68C22.69,3.87,22.05,3.22,21.26,3.22z M20.41,22.1
		c0,0.16-0.13,0.29-0.29,0.29H4.75c-0.16,0-0.29-0.13-0.29-0.29V8.01c0-0.16,0.13-0.29,0.29-0.29h15.37c0.16,0,0.29,0.13,0.29,0.29
		V22.1z"/>
	<path class="st0" d="M7.17,13.44h1.65c0.17,0,0.31-0.14,0.31-0.31v-1.65c0-0.17-0.14-0.31-0.31-0.31H7.17
		c-0.17,0-0.31,0.14-0.31,0.31v1.65C6.86,13.3,7,13.44,7.17,13.44z"/>
	<path class="st0" d="M11.69,13.44h1.65c0.17,0,0.31-0.14,0.31-0.31v-1.65c0-0.17-0.14-0.31-0.31-0.31h-1.65
		c-0.17,0-0.31,0.14-0.31,0.31v1.65C11.38,13.3,11.52,13.44,11.69,13.44z"/>
	<path class="st0" d="M16.21,13.44h1.65c0.17,0,0.31-0.14,0.31-0.31v-1.65c0-0.17-0.14-0.31-0.31-0.31h-1.65
		c-0.17,0-0.31,0.14-0.31,0.31v1.65C15.91,13.3,16.05,13.44,16.21,13.44z"/>
	<path class="st0" d="M16.21,17.97h1.65c0.17,0,0.31-0.14,0.31-0.31v-1.65c0-0.17-0.14-0.31-0.31-0.31h-1.65
		c-0.17,0-0.31,0.14-0.31,0.31v1.65C15.91,17.84,16.05,17.97,16.21,17.97z"/>
	<path class="st0" d="M11.69,17.97h1.65c0.17,0,0.31-0.14,0.31-0.31v-1.65c0-0.17-0.14-0.31-0.31-0.31h-1.65
		c-0.17,0-0.31,0.14-0.31,0.31v1.65C11.38,17.84,11.52,17.97,11.69,17.97z"/>
	<path class="st0" d="M7.17,17.97h1.65c0.17,0,0.31-0.14,0.31-0.31v-1.65c0-0.17-0.14-0.31-0.31-0.31H7.17
		c-0.17,0-0.31,0.14-0.31,0.31v1.65C6.86,17.84,7,17.97,7.17,17.97z"/>
</g>
</svg>
