<?xml version="1.0" encoding="utf-8"?>
<!-- Generator: Adobe Illustrator 25.2.3, SVG Export Plug-In . SVG Version: 6.00 Build 0)  -->
<svg version="1.1" id="Calque_1" xmlns="http://www.w3.org/2000/svg" xmlns:xlink="http://www.w3.org/1999/xlink" x="0px" y="0px"
	 viewBox="0 0 25 25" style="enable-background:new 0 0 25 25;" xml:space="preserve">
<style type="text/css">
	.st0{fill:#C8A969;}
</style>
<g>
	<path class="st0" d="M12.47,20.27c-0.2,0-0.41-0.06-0.58-0.19L4.08,14.5c-0.45-0.32-0.55-0.95-0.23-1.4
		c0.32-0.45,0.94-0.55,1.4-0.23l7.23,5.17l7.23-5.17c0.45-0.32,1.07-0.22,1.4,0.23s0.22,1.07-0.23,1.4l-7.81,5.59
		C12.88,20.21,12.67,20.27,12.47,20.27z"/>
	<path class="st0" d="M23,24.51H2c-0.55,0-1-0.45-1-1V9.52c0-0.31,0.15-0.6,0.39-0.79l10.5-8.03c0.36-0.27,0.86-0.27,1.21,0
		l10.5,8.03C23.85,8.92,24,9.21,24,9.52v13.98C24,24.06,23.55,24.51,23,24.51z M3,22.51h19V10.02l-9.5-7.27L3,10.02V22.51z"/>
</g>
</svg>
