<?xml version="1.0" encoding="utf-8"?>
<!-- Generator: Adobe Illustrator 25.2.3, SVG Export Plug-In . SVG Version: 6.00 Build 0)  -->
<svg version="1.1" id="Calque_1" xmlns="http://www.w3.org/2000/svg" xmlns:xlink="http://www.w3.org/1999/xlink" x="0px" y="0px"
	 viewBox="0 0 25 25" style="enable-background:new 0 0 25 25;" xml:space="preserve">
<style type="text/css">
	.st0{fill:#C8A969;}
</style>
<g>
	<path class="st0" d="M12.5,2.46c5.55,0,10.07,4.52,10.07,10.07S18.05,22.61,12.5,22.61S2.43,18.09,2.43,12.54S6.95,2.46,12.5,2.46
		 M12.5,0.46c-6.67,0-12.07,5.41-12.07,12.07S5.83,24.61,12.5,24.61s12.07-5.41,12.07-12.07S19.17,0.46,12.5,0.46L12.5,0.46z"/>
	<path class="st0" d="M16.45,17.01c-0.24,0-0.49-0.09-0.68-0.27l-4.06-3.77V5.5c0-0.55,0.45-1,1-1s1,0.45,1,1v6.6l3.42,3.17
		c0.41,0.38,0.43,1.01,0.05,1.41C16.98,16.9,16.71,17.01,16.45,17.01z"/>
</g>
</svg>
