<?xml version="1.0" encoding="utf-8"?>
<!-- Generator: Adobe Illustrator 25.2.3, SVG Export Plug-In . SVG Version: 6.00 Build 0)  -->
<svg version="1.1" id="Calque_1" xmlns="http://www.w3.org/2000/svg" xmlns:xlink="http://www.w3.org/1999/xlink" x="0px" y="0px"
	 viewBox="0 0 25 25" style="enable-background:new 0 0 25 25;" xml:space="preserve">
<style type="text/css">
	.st0{fill:#C8A969;}
</style>
<path class="st0" d="M22.97,1.41l-3.62-1.04c-0.3-0.09-0.61-0.13-0.91-0.13c-1.28,0-2.48,0.75-3.02,1.97l-1.43,3.28
	c-0.61,1.4-0.07,3.04,1.27,3.79L16.53,10c0.4,0.22,0.55,0.74,0.32,1.14c-0.85,1.44-2.45,3.33-5.5,5.28
	c-0.16,0.1-0.34,0.15-0.51,0.15c-0.33,0-0.65-0.17-0.82-0.49l-0.24-0.45c-0.55-1.04-1.63-1.66-2.75-1.66c-0.36,0-0.73,0.06-1.08,0.2
	L2.4,15.49c-1.44,0.53-2.24,2.07-1.85,3.56l1.1,4.24c0.22,0.86,0.76,1.52,1.8,1.46h0c0,0,19.37-2.03,21.11-20.59
	C24.72,2.43,24.37,1.82,22.97,1.41z M22.83,4.17c0,0.03-0.01,0.22-0.02,0.25c-1.38,14.8-14.9,17.79-18.62,18.4
	c-0.84,0.14-0.9-0.45-0.9-0.45l0,0l-0.98-3.77c-0.15-0.58,0.16-1.18,0.73-1.39l3.54-1.31c0.15-0.05,0.3-0.08,0.45-0.08
	c0.48,0,0.92,0.26,1.15,0.69l0.24,0.44c0.48,0.9,1.41,1.46,2.43,1.46c0.53,0,1.05-0.15,1.49-0.44c2.79-1.79,4.83-3.77,6.08-5.89
	c0.36-0.61,0.46-1.33,0.27-2.02c-0.18-0.69-0.65-1.28-1.26-1.63L16.15,7.7c-0.52-0.29-0.73-0.93-0.49-1.48l1.43-3.28
	c0.23-0.54,0.76-0.88,1.35-0.88c0.14,0,0.27,0.02,0.41,0.06l3.24,0.93C22.9,3.23,22.84,3.88,22.83,4.17z"/>
</svg>
