<?xml version="1.0" encoding="utf-8"?>
<!-- Generator: Adobe Illustrator 25.2.3, SVG Export Plug-In . SVG Version: 6.00 Build 0)  -->
<svg version="1.1" id="Calque_1" xmlns="http://www.w3.org/2000/svg" xmlns:xlink="http://www.w3.org/1999/xlink" x="0px" y="0px"
	 viewBox="0 0 25 25" style="enable-background:new 0 0 25 25;" xml:space="preserve">
<style type="text/css">
	.st0{fill:#C8A969;}
</style>
<g>
	<g>
		<path class="st0" d="M12.5,2.23c3.97,0,7.2,3.23,7.2,7.2c0,1.52-0.1,2.33-1.04,3.73l-6.16,8.27l-6.16-8.26
			C5.4,11.73,5.3,10.92,5.3,9.43C5.3,5.46,8.53,2.23,12.5,2.23 M12.5,0.23c-5.08,0-9.2,4.12-9.2,9.2c0,1.8,0.17,3.04,1.41,4.89
			l7.79,10.46l7.79-10.46c1.25-1.86,1.41-3.09,1.41-4.89C21.7,4.34,17.58,0.23,12.5,0.23L12.5,0.23z"/>
	</g>
	<g>
		<path class="st0" d="M12.5,6.54c1.59,0,2.89,1.3,2.89,2.89s-1.3,2.89-2.89,2.89s-2.89-1.3-2.89-2.89S10.91,6.54,12.5,6.54
			 M12.5,4.54c-2.7,0-4.89,2.19-4.89,4.89s2.19,4.89,4.89,4.89s4.89-2.19,4.89-4.89S15.2,4.54,12.5,4.54L12.5,4.54z"/>
	</g>
</g>
</svg>
