<?xml version="1.0" encoding="utf-8"?>
<!-- Generator: Adobe Illustrator 25.2.3, SVG Export Plug-In . SVG Version: 6.00 Build 0)  -->
<svg version="1.1" id="Calque_1" xmlns="http://www.w3.org/2000/svg" xmlns:xlink="http://www.w3.org/1999/xlink" x="0px" y="0px"
	 viewBox="0 0 25 25" style="enable-background:new 0 0 25 25;" xml:space="preserve">
<style type="text/css">
	.st0{fill:#C8A969;}
</style>
<g>
	<path class="st0" d="M24.73,12.5c0-6.75-5.47-12.23-12.23-12.23S0.27,5.75,0.27,12.5S5.75,24.73,12.5,24.73
		c3.24,0,6.18-1.27,8.37-3.33l0.03-0.01l-0.03,0.01C23.24,19.16,24.73,16.01,24.73,12.5z M12.5,2.79c5.36,0,9.71,4.36,9.71,9.71
		c0,2.07-0.66,3.99-1.77,5.57c-0.79-0.85-1.98-1.62-3.71-1.62H8.26c-1.73,0-2.92,0.77-3.71,1.62c-1.11-1.58-1.77-3.5-1.77-5.57
		C2.79,7.14,7.15,2.79,12.5,2.79z M6.34,20.01c0.48-0.56,1.12-1.05,1.92-1.05h8.47c0.8,0,1.44,0.48,1.92,1.05
		c-1.68,1.38-3.82,2.21-6.16,2.21C10.17,22.21,8.02,21.38,6.34,20.01z"/>
	<path class="st0" d="M12.5,14.63c2.58,0,4.67-2.09,4.67-4.67S15.08,5.3,12.5,5.3S7.83,7.39,7.83,9.97S9.92,14.63,12.5,14.63z
		 M12.5,7.65c1.28,0,2.31,1.04,2.31,2.31s-1.04,2.31-2.31,2.31c-1.28,0-2.31-1.04-2.31-2.31S11.22,7.65,12.5,7.65z"/>
</g>
</svg>
